<svg width="96" height="76" viewBox="0 0 96 76" fill="none" xmlns="http://www.w3.org/2000/svg">
<rect width="96" height="76" rx="10" fill="#002D70"/>
<path d="M32.375 17.6875V58.3125H63.625V28L63.1563 27.5312L53.7813 18.1562L53.3125 17.6875H32.375ZM35.5 20.8125H51.125V30.1875H60.5V55.1875H35.5V20.8125ZM54.25 23L58.3125 27.0625H54.25V23ZM38.625 27.0625V30.1875H48V27.0625H38.625ZM38.625 33.3125V36.4375H57.375V33.3125H38.625ZM44.0938 38C42.6875 38 41.5938 38.9375 40.9688 40.0312C40.3438 41.125 40.1875 42.5312 40.1875 44.0938C40.1875 45.0312 40.5 45.9688 40.6562 46.9063C40.0312 47.0625 39.4062 47.5312 38.625 47.5312V50.6562C39.7188 50.6562 40.8125 50.5 41.75 50.1875C41.9062 50.5 41.9062 50.6562 42.2188 50.9688C42.8438 51.5938 43.7812 52.0625 44.875 52.0625C47.375 52.0625 48.9375 50.3438 50.0312 49.0938C50.1875 48.7812 50.3438 48.625 50.5 48.4688C50.5 48.625 50.5 48.7812 50.6563 48.9375C50.8125 49.25 50.9688 49.5625 51.2812 49.875C51.5938 50.1875 52.2188 50.5 52.6875 50.5C53.625 50.5 54.25 49.875 54.5625 49.5625C54.875 49.25 55.1875 48.7813 55.5 48.4688C56.125 47.8438 56.5938 47.375 57.2188 47.375V44.25C55.3438 44.25 53.9375 45.3437 53.1562 46.2812C53.1562 46.125 53.1563 45.9688 53 45.8125C52.8438 45.5 52.6875 45.1875 52.375 44.7187C52.0625 44.25 51.5938 44.25 51.125 44.25C49.875 44.25 49.4062 45.0312 48.9375 45.5C48.4688 45.9687 48 46.5938 47.6875 47.2188C46.75 48.3125 46.125 48.9375 44.875 48.9375C44.7188 48.9375 44.7188 48.7812 44.5625 48.7812C44.7188 48.7812 44.7188 48.625 44.875 48.625C46.5938 47.2187 48 45.3438 48 42.8438C48 41.5938 47.6875 40.5 47.0625 39.5625C46.4375 38.625 45.3438 38 44.0938 38ZM43.9375 41.125C44.4062 41.125 44.4062 41.125 44.5625 41.4375C44.7188 41.75 44.875 42.2188 44.875 43C44.875 43.9375 44.4062 44.875 43.625 45.6562C43.625 45.1875 43.3125 44.5625 43.3125 44.25C43.3125 43 43.4688 42.0625 43.7812 41.5937C43.9375 41.2812 43.9375 41.125 43.9375 41.125Z" fill="white"/>
</svg>
