<svg width="97" height="76" viewBox="0 0 97 76" fill="none" xmlns="http://www.w3.org/2000/svg">
<rect x="0.5" width="96" height="76" rx="10" fill="#002D70"/>
<path d="M62.3333 16.125C63.2174 16.125 64.0652 16.4542 64.6904 17.0403C65.3155 17.6263 65.6667 18.4212 65.6667 19.25V56.75C65.6667 57.5788 65.3155 58.3737 64.6904 58.9597C64.0652 59.5458 63.2174 59.875 62.3333 59.875H35.6667C34.7826 59.875 33.9348 59.5458 33.3096 58.9597C32.6845 58.3737 32.3333 57.5788 32.3333 56.75V19.25C32.3333 18.4212 32.6845 17.6263 33.3096 17.0403C33.9348 16.4542 34.7826 16.125 35.6667 16.125H62.3333ZM35.6667 13C33.8986 13 32.2029 13.6585 30.9526 14.8306C29.7024 16.0027 29 17.5924 29 19.25V56.75C29 58.4076 29.7024 59.9973 30.9526 61.1694C32.2029 62.3415 33.8986 63 35.6667 63H62.3333C64.1014 63 65.7971 62.3415 67.0474 61.1694C68.2976 59.9973 69 58.4076 69 56.75V19.25C69 17.5924 68.2976 16.0027 67.0474 14.8306C65.7971 13.6585 64.1014 13 62.3333 13H35.6667Z" fill="white"/>
<path d="M35.667 20.8125C35.667 20.3981 35.8426 20.0007 36.1551 19.7076C36.4677 19.4146 36.8916 19.25 37.3337 19.25H60.667C61.109 19.25 61.5329 19.4146 61.8455 19.7076C62.1581 20.0007 62.3337 20.3981 62.3337 20.8125V27.0625C62.3337 27.4769 62.1581 27.8743 61.8455 28.1674C61.5329 28.4604 61.109 28.625 60.667 28.625H37.3337C36.8916 28.625 36.4677 28.4604 36.1551 28.1674C35.8426 27.8743 35.667 27.4769 35.667 27.0625V20.8125ZM35.667 33.3125C35.667 32.8981 35.8426 32.5007 36.1551 32.2076C36.4677 31.9146 36.8916 31.75 37.3337 31.75H40.667C41.109 31.75 41.5329 31.9146 41.8455 32.2076C42.1581 32.5007 42.3337 32.8981 42.3337 33.3125V36.4375C42.3337 36.8519 42.1581 37.2493 41.8455 37.5424C41.5329 37.8354 41.109 38 40.667 38H37.3337C36.8916 38 36.4677 37.8354 36.1551 37.5424C35.8426 37.2493 35.667 36.8519 35.667 36.4375V33.3125ZM35.667 42.6875C35.667 42.2731 35.8426 41.8757 36.1551 41.5826C36.4677 41.2896 36.8916 41.125 37.3337 41.125H40.667C41.109 41.125 41.5329 41.2896 41.8455 41.5826C42.1581 41.8757 42.3337 42.2731 42.3337 42.6875V45.8125C42.3337 46.2269 42.1581 46.6243 41.8455 46.9174C41.5329 47.2104 41.109 47.375 40.667 47.375H37.3337C36.8916 47.375 36.4677 47.2104 36.1551 46.9174C35.8426 46.6243 35.667 46.2269 35.667 45.8125V42.6875ZM35.667 52.0625C35.667 51.6481 35.8426 51.2507 36.1551 50.9576C36.4677 50.6646 36.8916 50.5 37.3337 50.5H40.667C41.109 50.5 41.5329 50.6646 41.8455 50.9576C42.1581 51.2507 42.3337 51.6481 42.3337 52.0625V55.1875C42.3337 55.6019 42.1581 55.9993 41.8455 56.2924C41.5329 56.5854 41.109 56.75 40.667 56.75H37.3337C36.8916 56.75 36.4677 56.5854 36.1551 56.2924C35.8426 55.9993 35.667 55.6019 35.667 55.1875V52.0625ZM45.667 33.3125C45.667 32.8981 45.8426 32.5007 46.1551 32.2076C46.4677 31.9146 46.8916 31.75 47.3337 31.75H50.667C51.109 31.75 51.5329 31.9146 51.8455 32.2076C52.1581 32.5007 52.3337 32.8981 52.3337 33.3125V36.4375C52.3337 36.8519 52.1581 37.2493 51.8455 37.5424C51.5329 37.8354 51.109 38 50.667 38H47.3337C46.8916 38 46.4677 37.8354 46.1551 37.5424C45.8426 37.2493 45.667 36.8519 45.667 36.4375V33.3125ZM45.667 42.6875C45.667 42.2731 45.8426 41.8757 46.1551 41.5826C46.4677 41.2896 46.8916 41.125 47.3337 41.125H50.667C51.109 41.125 51.5329 41.2896 51.8455 41.5826C52.1581 41.8757 52.3337 42.2731 52.3337 42.6875V45.8125C52.3337 46.2269 52.1581 46.6243 51.8455 46.9174C51.5329 47.2104 51.109 47.375 50.667 47.375H47.3337C46.8916 47.375 46.4677 47.2104 46.1551 46.9174C45.8426 46.6243 45.667 46.2269 45.667 45.8125V42.6875ZM45.667 52.0625C45.667 51.6481 45.8426 51.2507 46.1551 50.9576C46.4677 50.6646 46.8916 50.5 47.3337 50.5H50.667C51.109 50.5 51.5329 50.6646 51.8455 50.9576C52.1581 51.2507 52.3337 51.6481 52.3337 52.0625V55.1875C52.3337 55.6019 52.1581 55.9993 51.8455 56.2924C51.5329 56.5854 51.109 56.75 50.667 56.75H47.3337C46.8916 56.75 46.4677 56.5854 46.1551 56.2924C45.8426 55.9993 45.667 55.6019 45.667 55.1875V52.0625ZM55.667 33.3125C55.667 32.8981 55.8426 32.5007 56.1551 32.2076C56.4677 31.9146 56.8916 31.75 57.3337 31.75H60.667C61.109 31.75 61.5329 31.9146 61.8455 32.2076C62.1581 32.5007 62.3337 32.8981 62.3337 33.3125V36.4375C62.3337 36.8519 62.1581 37.2493 61.8455 37.5424C61.5329 37.8354 61.109 38 60.667 38H57.3337C56.8916 38 56.4677 37.8354 56.1551 37.5424C55.8426 37.2493 55.667 36.8519 55.667 36.4375V33.3125ZM55.667 42.6875C55.667 42.2731 55.8426 41.8757 56.1551 41.5826C56.4677 41.2896 56.8916 41.125 57.3337 41.125H60.667C61.109 41.125 61.5329 41.2896 61.8455 41.5826C62.1581 41.8757 62.3337 42.2731 62.3337 42.6875V55.1875C62.3337 55.6019 62.1581 55.9993 61.8455 56.2924C61.5329 56.5854 61.109 56.75 60.667 56.75H57.3337C56.8916 56.75 56.4677 56.5854 56.1551 56.2924C55.8426 55.9993 55.667 55.6019 55.667 55.1875V42.6875Z" fill="white"/>
</svg>
