<svg width="30" height="30" viewBox="0 0 30 30" fill="none" xmlns="http://www.w3.org/2000/svg">
<path d="M19.8801 4.04932H10.1198C9.59508 4.04981 9.09199 4.25848 8.72095 4.62952C8.34991 5.00056 8.14124 5.50365 8.14075 6.02838V23.9717C8.14124 24.4964 8.34991 24.9995 8.72095 25.3705C9.09199 25.7416 9.59508 25.9502 10.1198 25.9507H19.8801C20.4048 25.9502 20.9079 25.7416 21.279 25.3705C21.65 24.9995 21.8587 24.4964 21.8592 23.9717V6.02838C21.8587 5.50365 21.65 5.00056 21.279 4.62952C20.9079 4.25848 20.4048 4.04981 19.8801 4.04932ZM9.13028 8.13025H20.8697V20.9604H9.13028V8.13025ZM10.1198 5.03908H19.8801C20.1424 5.03945 20.3939 5.14383 20.5794 5.32932C20.7649 5.51481 20.8693 5.76629 20.8697 6.02861V7.14096H9.13028V6.02838C9.13071 5.76609 9.23511 5.51468 9.4206 5.32924C9.60608 5.1438 9.85752 5.03945 10.1198 5.03908ZM19.8799 24.961H10.1198C9.85748 24.9606 9.60601 24.8562 9.42052 24.6707C9.23502 24.4852 9.13065 24.2337 9.13028 23.9714V21.9499H20.8697V23.9714C20.8693 24.2337 20.7649 24.4852 20.5794 24.6707C20.3939 24.8562 20.1424 24.9606 19.8801 24.961H19.8799Z" fill="#011738"/>
<path d="M16.2726 22.8853H13.7273C13.5961 22.8853 13.4702 22.9374 13.3775 23.0302C13.2847 23.123 13.2325 23.2489 13.2325 23.3801C13.2325 23.5113 13.2847 23.6371 13.3775 23.7299C13.4702 23.8227 13.5961 23.8748 13.7273 23.8748H16.2726C16.4038 23.8748 16.5297 23.8227 16.6225 23.7299C16.7153 23.6371 16.7674 23.5113 16.7674 23.3801C16.7674 23.2489 16.7153 23.123 16.6225 23.0302C16.5297 22.9374 16.4038 22.8853 16.2726 22.8853Z" fill="#011738"/>
</svg>
