<svg xmlns="http://www.w3.org/2000/svg" viewBox="0 0 32 32" id="bacteria-in-teeth" fill="#fff">
	<path d="M23.50292,25.11152a.5.5,0,1,0,.5.5A.5.5,0,0,0,23.50292,25.11152Zm2-8a.5.5,0,1,0-.5-.5A.5.5,0,0,0,25.50292,17.11152Zm-4.1123,3.376a.49946.49946,0,0,0-.46973.52832,2.24394,2.24394,0,0,1-.73535,1.8457,1.44371,1.44371,0,0,1-.55859.21484.50027.50027,0,0,0,.168.98633,2.45756,2.45756,0,0,0,.94238-.36719,3.20769,3.20769,0,0,0,1.18164-2.73828A.48825.48825,0,0,0,21.39062,20.48755Zm2.1123.624a.5.5,0,1,0,.5.5A.5.5,0,0,0,23.50292,21.11152Zm-2-4a.5.5,0,1,0,.5.5A.5.5,0,0,0,21.50292,17.11152Zm7.5,1.5a.5.5,0,1,0-.5.5A.5.5,0,0,0,29.00292,18.61152ZM25.51464,21.0647a.5988.5988,0,0,0,.07227.00488.50055.50055,0,0,0,.49414-.42871,3.05008,3.05008,0,0,0-1.04687-2.45508.50018.50018,0,0,0-.72852.68555,2.15288,2.15288,0,0,1,.78516,1.627A.501.501,0,0,0,25.51464,21.0647ZM29.81292,16.326a7.537,7.537,0,0,0-8.73-1.36l-1.79-.65,1.41-4.18005a5.53686,5.53686,0,0,0-6.81-7.08l-2.39.72-.05.01-.07385.01849-.00677.00153h-.0094l-.05.01a2.97293,2.97293,0,0,1-1.62,0l-2.58-.76a5.464,5.464,0,0,0-5.56,1.48,5.41507,5.41507,0,0,0-1.25,5.6l1.78,5.24005a3.02338,3.02338,0,0,1-.02,1.87994,12.79661,12.79661,0,0,0,.83,10l.56,1.06006a1.59724,1.59724,0,0,0,1.45.86,1.57571,1.57571,0,0,0,1.41-.93l2.8-6.11a1.53051,1.53051,0,0,1,2.78,0l2.79,6.11a1.60162,1.60162,0,0,0,1.42.93h.04a1.58279,1.58279,0,0,0,1.41-.85l.53-1c.2-.38.37-.75.52-1.11a6.65217,6.65217,0,0,0,.61.7,7.4918,7.4918,0,0,0,10.6-10.59Zm-12.61,10.53-.53,1a.59288.59288,0,0,1-.55.32.60841.60841,0,0,1-.53-.35l-2.8-6.11a2.51869,2.51869,0,0,0-4.58,0l-2.8,6.11a.60289.60289,0,0,1-1.08.03l-.56-1.06a11.89481,11.89481,0,0,1-.74-9.29,3.87444,3.87444,0,0,0-.01-2.45l-1.78-5.24a4.47105,4.47105,0,0,1,1.03-4.59,4.48021,4.48021,0,0,1,4.56-1.21l2.58.76a4.7023,4.7023,0,0,0,.51.12l.00653.00024A4.158,4.158,0,0,0,8.998,6.71607a.50007.50007,0,0,0,.38086.5957.50945.50945,0,0,0,.10742.01172.50112.50112,0,0,0,.48828-.39258A3.20291,3.20291,0,0,1,11.77636,4.718l.00708-.00507,2.38947-.697a4.54112,4.54112,0,0,1,5.59,5.8l-1.41,4.16-.9-.33a.50009.50009,0,0,0-.52.11.52545.52545,0,0,0-.12.52l1.23,3.58a7.49415,7.49415,0,0,0-1.03,3.78,7.41268,7.41268,0,0,0,.91,3.55A11.68909,11.68909,0,0,1,17.20294,26.856Zm11.9-.64a6.50936,6.50936,0,0,1-9.18,0,6.25284,6.25284,0,0,1-.92-1.16,3.64456,3.64456,0,0,1-.3-.54h-.01a6.47741,6.47741,0,0,1,.32-6.33.504.504,0,0,0,.05-.43005l-.96-2.81,2.85,1.04a.5308.5308,0,0,0,.41-.03,6.48828,6.48828,0,0,1,7.74,10.26Zm-.06873-6.03021a.50018.50018,0,0,0-.72852.68555,2.15288,2.15288,0,0,1,.78516,1.627.501.501,0,0,0,.42383.56641.5988.5988,0,0,0,.07227.00488.50055.50055,0,0,0,.49414-.42871A3.05008,3.05008,0,0,0,29.03417,20.1858Zm-3.707,2.97852a.5.5,0,0,0-.02148.707,2.15288,2.15288,0,0,1,.78516,1.627.501.501,0,0,0,.42383.56641.5988.5988,0,0,0,.07227.00488.50055.50055,0,0,0,.49414-.42871,3.05008,3.05008,0,0,0-1.04687-2.45508A.50094.50094,0,0,0,25.32714,23.16431Zm2.17578-.0528a.5.5,0,1,0,.5.5A.5.5,0,0,0,27.50292,23.11152Z">
	</path>
</svg>