<svg xmlns="http://www.w3.org/2000/svg" viewBox="0 0 32 32" id="dental-drill" fill="#fff"><path d="M16.67909,10.30313l-1.4043.24463a.50205.50205,0,0,0-.31836.19824L13.3412,12.96134l-1.99512-2.479a.50085.50085,0,0,0-.248-.166A4.63859,4.63859,0,0,0,5.393,16.25137L6.849,20.557a2.29062,2.29062,0,0,1-.01367,1.48926,10.66393,10.66393,0,0,0,.6875,8.292l.46094.87207a1.38727,1.38727,0,0,0,1.04474.723l.01385.00549c.0097.00159.01855-.00189.0282-.00085a1.3548,1.3548,0,0,0,.19348.02136A1.39754,1.39754,0,0,0,10.50233,31.14l2.29883-5.0166a1.16573,1.16573,0,0,1,2.11914,0L17.21913,31.14a1.39754,1.39754,0,0,0,1.23828.81934h.03906c.02094,0,.04-.00732.06079-.00824a.4598.4598,0,0,0,.05444-.00446l.012-.00458a1.38581,1.38581,0,0,0,1.114-.73175l.43164-.81641a10.80812,10.80812,0,0,0,.69824-8.40332,2.271,2.271,0,0,1,.00488-1.43359l1.45605-4.30566a4.636,4.636,0,0,0-5.64941-5.94824Zm-.85059,15.4043a2.16393,2.16393,0,0,0-3.93555,0L9.87678,30.10727l.47125-2.645a19.45489,19.45489,0,0,0,.15137-5.83984l-.21973-1.7627a1.05981,1.05981,0,0,1,1.63965-1.0127,3.48749,3.48749,0,0,0,3.88281,0,1.05992,1.05992,0,0,1,1.63965,1.01367l-.23047,1.84766a19.4488,19.4488,0,0,0,.12109,5.668l.43188,2.55548ZM17.473,17.977a2.03226,2.03226,0,0,0-2.22559.03809,2.49,2.49,0,0,1-2.77344,0,2.04185,2.04185,0,0,0-3.04486.9519,2.473,2.473,0,0,1-.127-1.03589,1.32759,1.32759,0,0,1,.58105-.97217,6.78156,6.78156,0,0,1,3.09961-.71436,12.32452,12.32452,0,0,1,3.55957.24951c1.04395.23,1.65039.646,1.85352,1.272a1.85347,1.85347,0,0,1-.09,1.24475A2.02743,2.02743,0,0,0,17.473,17.977Zm3.9082-2.0459-1.45605,4.30566a3.27221,3.27221,0,0,0-.00684,2.06836,9.80108,9.80108,0,0,1-.63379,7.62207l-.38391.72614-.58191-3.44293a18.45346,18.45346,0,0,1-.11523-5.37793l.1394-1.11768a3.35733,3.35733,0,0,0,1.00415-3.25635,3.13567,3.13567,0,0,0-2.58984-1.94092,13.22759,13.22759,0,0,0-3.8623-.269,7.43146,7.43146,0,0,0-3.58984.894A2.33972,2.33972,0,0,0,8.30995,17.81a4.55561,4.55561,0,0,0,1.10114,3.16547l.09613.77106a18.45854,18.45854,0,0,1-.14355,5.54l-.58551,3.286-.37054-.701a9.68209,9.68209,0,0,1-.60742-7.55664,3.24846,3.24846,0,0,0-.00391-2.07812L6.34022,15.93106a3.63932,3.63932,0,0,1,4.32813-4.6958l2.30273,2.86133a.516.516,0,0,0,.40137.18652.50156.50156,0,0,0,.39258-.20557L15.64588,11.498l1.26074-.22266a3.63908,3.63908,0,0,1,4.47461,4.65576ZM25.36073,1.54044H15.64887a2.4981,2.4981,0,0,0-4.78815,1v4a.49971.49971,0,0,0,.5.5h1.5v2.5a.5.5,0,1,0,1,0v-2.5h1.5a.49971.49971,0,0,0,.5-.5v-2h9.5a1.5,1.5,0,0,0,0-3Zm-10.5,2.5v2h-3v-3.5a1.5,1.5,0,1,1,3,0Zm10.5-.5h-9.5v-1h9.5a.5.5,0,0,1,0,1Z"></path></svg>