<svg xmlns="http://www.w3.org/2000/svg" viewBox="0 0 32 32" id="dentist-tools" fill="#fff"><path d="M29.329,5.32715l-3.18164-.35352a.49372.49372,0,0,0-.40918.14355L22.55511,8.30029l-.00244-.00244a.49731.49731,0,0,0-.66992-.0332l-6.20056,5.0719-1.21936-1.21936a1.53913,1.53913,0,0,0-1.68317-.2652L9.79711,8.86945A3.77726,3.77726,0,0,0,10.372,6.8916,4.00556,4.00556,0,0,0,6.29974,2.96582,4.00579,4.00579,0,0,0,2.22649,6.8916a4.00579,4.00579,0,0,0,4.07324,3.92578A4.137,4.137,0,0,0,9.17883,9.66522l2.8786,2.8786a1.489,1.489,0,0,0,.28821,1.71008l1.06812,1.06482L5.60217,23.13763c-.00494.00458-.01147.006-.0163.0108s-.00629.01135-.01086.01636L3.11517,25.627A1.98491,1.98491,0,0,0,2.52825,27.041a2.01234,2.01234,0,0,0,.58691,1.41309,1.98377,1.98377,0,0,0,1.4082.58008,2.02091,2.02091,0,0,0,1.41992-.58105L16.24407,18.14264,26.495,28.39453a1.50053,1.50053,0,1,0,2.11719-2.127L18.22253,15.87787l5.0733-6.20013a.49924.49924,0,0,0-.0332-.66992l-.00049-.00049,3.01318-3.01318,2.94238.32715a.50018.50018,0,0,0,.11133-.99414ZM6.29974,9.81738A3.0058,3.0058,0,0,1,3.22649,6.8916,3.0058,3.0058,0,0,1,6.29974,3.96582,3.00493,3.00493,0,0,1,9.372,6.8916,3.00493,3.00493,0,0,1,6.29974,9.81738ZM5.23821,27.74414a1.00049,1.00049,0,0,1-1.71-.70312.99459.99459,0,0,1,.29492-.708l2.11914-2.12109L7.3554,25.625ZM8.06207,24.9176,6.649,23.50452l7.4729-7.47986,1.05383,1.05054.36133.36035Zm7.64972-9.08344-.18365.18231-2.47546-2.4696a.50626.50626,0,0,1-.01062-.70129c.00439-.00409.01025-.00537.01453-.00964l.00171-.0025a.54134.54134,0,0,1,.35083-.143.5183.5183,0,0,1,.35645.14355l2.47461,2.47559-.3349.33258ZM27.9052,26.97461a.51057.51057,0,0,1,0,.71289.49864.49864,0,0,1-.70312,0L16.5927,17.07715l-.35547-.35547.332-.32971.37811-.37524.24792.24792ZM17.51165,15.166l-.209-.209-.90924-.90924L17.683,12.99268l.88391.88391Zm1.69177-2.067-.74261-.74261L22.16595,9.3252l.06934.06934Z"></path></svg>