<svg xmlns="http://www.w3.org/2000/svg" viewBox="0 0 32 32" id="dental-x-ray" fill="#fff"><path d="M29.5,0H2.5A2.50232,2.50232,0,0,0,0,2.5v27A2.50232,2.50232,0,0,0,2.5,32h27A2.50232,2.50232,0,0,0,32,29.5V2.5A2.50232,2.50232,0,0,0,29.5,0ZM1,6.54492l1.042-.30566A3.58143,3.58143,0,0,1,5.7002,7.21a3.56709,3.56709,0,0,1,.81641,3.68066l-1.4502,4.31055a3.25605,3.25605,0,0,0-.01074,2.06738,9.69229,9.69229,0,0,1,.49414,3.07129,9.84906,9.84906,0,0,1-1.12012,4.54395l-.38788.7226L3.46289,22.166a18.41749,18.41749,0,0,1-.11719-5.374l.23047-1.85156a2.03032,2.03032,0,0,0-.499-1.61328A2.07522,2.07522,0,0,0,1,12.70569Zm0,7.23615a1.05438,1.05438,0,0,1,1.584,1.03729l-.23047,1.85059a19.41285,19.41285,0,0,0,.123,5.66406l.43378,2.57715L1,20.73926ZM31,29.5A1.50164,1.50164,0,0,1,29.5,31H2.5A1.50164,1.50164,0,0,1,1,29.5V23.14008l1.35742,2.96246a1.40961,1.40961,0,0,0,1.24609.81543H3.6377c.0332,0,.06384-.01086.09662-.01312l.01862-.00153.00409-.00159a1.38,1.38,0,0,0,1.1131-.725l.44336-.8252A10.85419,10.85419,0,0,0,6.5498,20.33984a10.718,10.718,0,0,0-.54492-3.3877,2.24891,2.24891,0,0,1,.00879-1.43066v-.002l1.4502-4.30859c.01447-.04248.02106-.08551.0343-.12811.01312.0426.01965.08563.03406.12811L8.98828,15.5166a2.29062,2.29062,0,0,1-.01367,1.48926,10.66393,10.66393,0,0,0,.6875,8.292l.46094.87207a1.38263,1.38263,0,0,0,1.04431.7229l.01428.00562c.00964.00153.01849-.00189.02814-.00092a1.37855,1.37855,0,0,0,.19354.02142,1.39754,1.39754,0,0,0,1.23828-.81934l2.30078-5.0166a1.16345,1.16345,0,0,1,2.11621,0l2.2998,5.0166a1.39754,1.39754,0,0,0,1.23828.81934h.03906c.02094,0,.04-.00732.06079-.00824a.4598.4598,0,0,0,.05444-.00446l.012-.00458a1.38581,1.38581,0,0,0,1.114-.73175l.43164-.81641a10.80812,10.80812,0,0,0,.69824-8.40332,2.271,2.271,0,0,1,.00488-1.43359l1.45605-4.30566A4.63787,4.63787,0,0,0,18.7627,5.27637l-2.124.626a2.25277,2.25277,0,0,1-1.27637,0l-2.125-.626A4.56268,4.56268,0,0,0,8.582,6.51074,4.64447,4.64447,0,0,0,7.49957,8.33112a4.634,4.634,0,0,0-1.0777-1.81354,4.56373,4.56373,0,0,0-4.66211-1.2373L1,5.50281V2.5A1.50164,1.50164,0,0,1,2.5,1h27A1.50164,1.50164,0,0,1,31,2.5ZM15.05566,8.94727a.52555.52555,0,0,0,.1084.01172.50127.50127,0,0,0,.48828-.3916A2.54691,2.54691,0,0,1,17.072,6.81683l1.97394-.58148a3.63865,3.63865,0,0,1,4.47461,4.65527l-1.45605,4.30566a3.27221,3.27221,0,0,0-.00684,2.06836,9.80108,9.80108,0,0,1-.63379,7.62207l-.38391.72614L20.458,22.16992a18.45346,18.45346,0,0,1-.11523-5.37793l.23047-1.84766a2.06,2.06,0,0,0-3.18652-1.96973,2.49,2.49,0,0,1-2.77344,0,2.05988,2.05988,0,0,0-3.18652,1.96875l.21973,1.7627a18.45854,18.45854,0,0,1-.14355,5.54l-.58551,3.286-.37054-.701a9.68209,9.68209,0,0,1-.60742-7.55664,3.24846,3.24846,0,0,0-.00391-2.07813L8.47949,10.89063A3.63865,3.63865,0,0,1,12.9541,6.23535l2.126.626c.09357.02765.18909.04315.28406.06219a3.50842,3.50842,0,0,0-.68835,1.42706A.50043.50043,0,0,0,15.05566,8.94727Zm-2.417,7.63477-.21973-1.7627a1.05981,1.05981,0,0,1,1.63965-1.0127,3.48749,3.48749,0,0,0,3.88281,0,1.05992,1.05992,0,0,1,1.63965,1.01367L19.35059,16.668a19.4488,19.4488,0,0,0,.12109,5.668l.43188,2.55548L17.96777,20.667a2.16317,2.16317,0,0,0-3.93457,0L12.016,25.06726l.47131-2.64539A19.45489,19.45489,0,0,0,12.63867,16.582ZM28.5,17a.49971.49971,0,0,0-.5.5v11a.5.5,0,0,0,1,0v-11A.49971.49971,0,0,0,28.5,17Zm-2,7a.49971.49971,0,0,0-.5.5v4a.5.5,0,0,0,1,0v-4A.49971.49971,0,0,0,26.5,24Zm3-22h-4a.5.5,0,0,0,0,1h4a.5.5,0,0,0,0-1Zm0,2h-2a.5.5,0,0,0,0,1h2a.5.5,0,0,0,0-1Z"></path></svg>
