<svg xmlns="http://www.w3.org/2000/svg" viewBox="0 0 32 32" id="caries" fill="#fff">
	<path d="M10.86908,7.41418a.49387.49387,0,1,0,.49384.49384A.49385.49385,0,0,0,10.86908,7.41418Zm-1.97546.98773a.49387.49387,0,1,0,.49384.49384A.49389.49389,0,0,0,8.89362,8.40192Zm21.945,16.84271-6.634-6.63354-.00079-.00122-.00122-.00079L22.8064,17.21289a1.522,1.522,0,0,0-2.10352,0l-.34479.34479-2.22784-2.22754A9.88488,9.88488,0,0,0,9.88159,0,9.88354,9.88354,0,0,0,2.89233,16.87207a9.88663,9.88663,0,0,0,12.4353,1.26044l2.228,2.22766-.34491.34491a1.48944,1.48944,0,0,0,0,2.104l1.3963,1.39624.00018.00024.00024.00018,6.6355,6.63507a3.95693,3.95693,0,1,0,5.5957-5.59619Zm-20.957-6.47754a8.88354,8.88354,0,0,1-6.28223-15.165A8.88355,8.88355,0,1,1,16.16284,16.165,8.82473,8.82473,0,0,1,9.88159,18.76709Zm6.29395-1.20068,1.38867-1.38818,2.08691,2.08643-1.38867,1.38818Zm1.74219,4.53564a.488.488,0,0,1,0-.68994l3.49219-3.49219a.488.488,0,0,1,.68945,0l1.0437,1.04364L18.96075,23.145Zm12.21387,8.03174a3.0276,3.0276,0,0,1-4.18164,0l-6.28217-6.28174,4.18231-4.18146,6.28149,6.28107a2.95706,2.95706,0,0,1,0,4.18213ZM27.32886,27.332a1.5,1.5,0,1,0,2.12207-.00049A1.50241,1.50241,0,0,0,27.32886,27.332Zm1.415,1.41357a.5.5,0,1,1,0-.707A.50188.50188,0,0,1,28.7439,28.74561ZM10.96655,5.248l-.89258.25342a.7021.7021,0,0,1-.38379.00049L8.79663,5.248a2.2694,2.2694,0,0,0-2.2832.62109A2.10414,2.10414,0,0,0,6.04761,8.042l.61133,1.74512a.59817.59817,0,0,1-.00586.40576,4.488,4.488,0,0,0,.30957,3.60742l.19434.35254a.84122.84122,0,0,0,.7998.45557.87616.87616,0,0,0,.77246-.499L9.696,12.0752c.09375-.19629.27734-.1958.37109-.00049l.9668,2.03467v.001a.877.877,0,0,0,.77246.498l.02539.00049a.876.876,0,0,0,.77441-.45605l.18066-.33057a4.53468,4.53468,0,0,0,.31445-3.65186.58944.58944,0,0,1,.002-.38232l.6123-1.74609a2.10348,2.10348,0,0,0-.46777-2.17334A2.26937,2.26937,0,0,0,10.96655,5.248Zm1.80566,2.46289-.6123,1.74561a1.58424,1.58424,0,0,0-.00391,1.03857,3.54,3.54,0,0,1-.24609,2.84717l-.07129.13086-.86914-1.82764A1.211,1.211,0,0,0,8.7937,11.646l-.86914,1.82813-.085-.15479A3.49908,3.49908,0,0,1,7.60522,10.499a1.57573,1.57573,0,0,0-.002-1.042L6.991,7.71094a1.11951,1.11951,0,0,1,.251-1.15625,1.25953,1.25953,0,0,1,.9209-.395A1.30978,1.30978,0,0,1,8.52319,6.21l.89453.25391a1.705,1.705,0,0,0,.92871,0L11.24,6.21a1.27629,1.27629,0,0,1,1.28027.34424A1.12274,1.12274,0,0,1,12.77222,7.71094Zm2.35156-3.06982a7.4104,7.4104,0,1,0,0,10.48486A7.423,7.423,0,0,0,15.12378,4.64111Zm-.707,9.77783a6.41089,6.41089,0,1,1,0-9.0708A6.42072,6.42072,0,0,1,14.41675,14.41895Z">
	</path>
</svg>